<?xml version="1.0" encoding="utf-8"?>
<!-- Generator: Adobe Illustrator 26.5.0, SVG Export Plug-In . SVG Version: 6.00 Build 0)  -->
<svg version="1.1" id="Capa_1" xmlns="http://www.w3.org/2000/svg" xmlns:xlink="http://www.w3.org/1999/xlink" x="0px" y="0px"
	 viewBox="0 0 97 20" style="enable-background:new 0 0 97 20;" xml:space="preserve">
<style type="text/css">
	.st0{fill-rule:evenodd;clip-rule:evenodd;}
	.st1{fill-rule:evenodd;clip-rule:evenodd;fill:#058E18;}
	.st2{fill:#058E18;}
</style>
<path class="st0" d="M4.4,9.3v7.1c0,0.4-0.3,0.6-0.7,0.6H1.2c-0.4,0-0.7-0.3-0.7-0.6V3.5c0-0.3,0.2-0.5,0.4-0.6c0,0,5.7-2.1,7.4-2.8
	c0.5-0.2,1-0.2,1.4,0c1.7,0.6,7.4,2.8,7.4,2.8c0.3,0.1,0.5,0.5,0.4,0.8c-0.1,0.3-0.5,0.5-0.8,0.4c0,0-5.7-2.1-7.4-2.8
	c-0.2-0.1-0.3-0.1-0.5,0l-7,2.6v11.8h1.3V6.1c0-0.4,0.3-0.6,0.7-0.6h10.5c0.4,0,0.7,0.3,0.7,0.6v9.6h1.3V6.1c0-0.4,0.3-0.6,0.7-0.6
	c0.4,0,0.7,0.3,0.7,0.6v10.3c0,0.4-0.3,0.6-0.7,0.6h-2.6c-0.4,0-0.7-0.3-0.7-0.6V9.3H4.4z M13.6,8V6.7H4.4V8H13.6z"/>
<path class="st0" d="M85.9,15.7c-0.2,0.2-0.4,0.3-0.7,0.3c-0.3,0-0.5-0.1-0.7-0.3c-0.2-0.2-0.3-0.4-0.3-0.7V5.1
	c0-0.3,0.1-0.5,0.3-0.7s0.4-0.3,0.7-0.3s0.5,0.1,0.7,0.3s0.3,0.4,0.3,0.7V15C86.1,15.3,86,15.5,85.9,15.7z M70.3,15.8
	c-0.6,0.3-1.3,0.4-2,0.4c-0.7,0-1.4-0.1-2-0.3c-0.6-0.2-1.2-0.5-1.7-1c-0.1-0.1-0.2-0.3-0.3-0.4c-0.1-0.1-0.1-0.3-0.1-0.4
	c0-0.2,0.1-0.5,0.3-0.6c0.2-0.2,0.4-0.3,0.7-0.3c0.2,0,0.4,0.1,0.5,0.2c0.4,0.3,0.8,0.6,1.2,0.8s0.9,0.3,1.5,0.3
	c0.4,0,0.8-0.1,1.1-0.2c0.3-0.1,0.6-0.3,0.8-0.5c0.2-0.2,0.3-0.4,0.3-0.7c0-0.3-0.1-0.6-0.3-0.8c-0.2-0.2-0.5-0.4-0.9-0.6
	c-0.4-0.2-0.9-0.3-1.5-0.4c-0.6-0.1-1.1-0.2-1.5-0.4c-0.4-0.2-0.8-0.4-1.1-0.7c-0.3-0.3-0.5-0.6-0.7-1s-0.2-0.8-0.2-1.2
	c0-0.7,0.2-1.3,0.5-1.8s0.8-0.9,1.4-1.1c0.6-0.3,1.3-0.4,2-0.4c0.7,0,1.3,0.1,1.9,0.3c0.6,0.2,1.1,0.5,1.4,0.8
	C72,6,72.2,6.3,72.2,6.6c0,0.2-0.1,0.4-0.3,0.6c-0.2,0.2-0.4,0.3-0.6,0.3c-0.2,0-0.3,0-0.4-0.1c-0.2-0.1-0.4-0.3-0.7-0.4
	c-0.3-0.1-0.6-0.2-0.9-0.3c-0.3-0.1-0.6-0.1-0.9-0.1c-0.5,0-0.8,0.1-1.2,0.2c-0.3,0.1-0.6,0.3-0.7,0.5c-0.2,0.2-0.2,0.4-0.2,0.7
	c0,0.3,0.1,0.6,0.3,0.8s0.5,0.4,0.8,0.5s0.8,0.2,1.3,0.3c0.6,0.1,1.2,0.3,1.7,0.4c0.5,0.2,0.9,0.4,1.2,0.6s0.6,0.6,0.7,0.9
	c0.2,0.4,0.2,0.8,0.2,1.4c0,0.7-0.2,1.3-0.6,1.8C71.5,15.1,70.9,15.5,70.3,15.8z M78.7,16c-0.3,0.1-0.7,0.2-1.1,0.2
	c-0.7,0-1.4-0.2-2-0.6c-0.6-0.4-1.1-0.9-1.4-1.6c-0.3-0.7-0.5-1.4-0.5-2.3c0-0.9,0.2-1.6,0.5-2.3c0.3-0.7,0.8-1.2,1.4-1.6
	s1.2-0.6,2-0.6c0.5,0,0.9,0.1,1.3,0.2s0.7,0.3,1,0.5l0.2,0.1c0.1,0,0.1,0.1,0.2,0.1v0c0-0.3,0.1-0.5,0.3-0.7s0.4-0.3,0.7-0.3
	c0.3,0,0.5,0.1,0.7,0.3C81.9,7.7,82,8,82,8.3V15c0,0.3-0.1,0.5-0.3,0.7S81.3,16,81,16c-0.3,0-0.5-0.1-0.7-0.3l-0.1-0.1
	c-0.1-0.1-0.2-0.3-0.2-0.5l0-0.1L80,15.1c-0.1,0.1-0.2,0.2-0.4,0.3C79.3,15.7,79,15.8,78.7,16z M77.8,14.4c-0.5,0-0.9-0.1-1.2-0.4
	c-0.4-0.2-0.6-0.6-0.8-1c-0.2-0.4-0.3-0.9-0.3-1.4c0-0.5,0.1-1,0.3-1.4c0.2-0.4,0.5-0.7,0.8-1C76.9,9.2,77.3,9,77.8,9
	c0.5,0,0.9,0.1,1.2,0.4c0.4,0.2,0.6,0.6,0.8,1c0.2,0.4,0.3,0.9,0.3,1.4c0,0.5-0.1,1-0.3,1.4c-0.2,0.4-0.5,0.7-0.8,1
	C78.7,14.3,78.3,14.4,77.8,14.4z M92.3,16.2c0.5,0,1.1-0.1,1.6-0.3c0.5-0.2,0.9-0.4,1.2-0.6c0.3-0.2,0.4-0.5,0.4-0.8
	c0-0.2-0.1-0.4-0.2-0.6s-0.3-0.2-0.6-0.2c-0.2,0-0.4,0-0.5,0.1c-0.1,0.1-0.2,0.1-0.4,0.2c-0.1,0.1-0.3,0.2-0.6,0.2s-0.5,0.1-0.9,0.1
	c-0.4,0-0.8-0.1-1.2-0.3c-0.4-0.2-0.7-0.5-0.9-0.9c-0.1-0.2-0.2-0.5-0.3-0.8l0,0h5.3c0.2,0,0.4-0.1,0.6-0.2l0.1-0.1
	c0.2-0.2,0.3-0.4,0.3-0.6c0-0.6-0.1-1.1-0.3-1.6c-0.2-0.5-0.5-1-0.9-1.4S94,7.8,93.6,7.6s-1-0.3-1.5-0.3c-0.7,0-1.4,0.2-2,0.5
	c-0.6,0.4-1.1,0.9-1.5,1.6c-0.4,0.7-0.6,1.5-0.6,2.5c0,0.8,0.2,1.6,0.5,2.2c0.4,0.7,0.9,1.2,1.5,1.5S91.4,16.2,92.3,16.2z
	 M89.8,10.8H94v-0.1c0-0.3-0.1-0.6-0.3-0.8c-0.2-0.2-0.4-0.4-0.7-0.6C92.7,9.1,92.3,9,92,9c-0.3,0-0.6,0-0.9,0.1
	c-0.3,0.1-0.5,0.2-0.7,0.4c-0.2,0.2-0.4,0.5-0.5,0.8l-0.1,0.2L89.8,10.8z"/>
<g>
	<path class="st1" d="M48.1,15.7C48,15.9,47.8,16,47.7,16c-0.2,0-0.3,0-0.5,0c-0.2,0-0.3-0.1-0.4-0.1c-0.2-0.1-0.3-0.2-0.5-0.4
		c-0.2-0.2-0.3-0.5-0.4-0.8s-0.2-0.8-0.2-1.3c0-0.2,0-0.3-0.1-0.5c-0.1-0.1-0.1-0.3-0.3-0.4c-0.1-0.1-0.2-0.2-0.4-0.2l-0.1,0
		c-0.1,0-0.3,0-0.5,0l-2.8,0v2.9c0,0.3-0.1,0.5-0.2,0.7S41,16,40.7,16c-0.3,0-0.5-0.1-0.8-0.3c-0.2-0.2-0.3-0.4-0.3-0.7V6.4
		c0-0.3,0.1-0.5,0.3-0.7c0.2-0.2,0.4-0.3,0.7-0.3h4.3c0.5,0,1,0.1,1.5,0.4c0.5,0.3,0.8,0.7,1.1,1.1c0.3,0.5,0.4,1,0.4,1.7
		c0,0.4-0.1,0.8-0.2,1.1c-0.2,0.4-0.4,0.7-0.6,1L46.8,11c-0.1,0.1-0.2,0.2-0.3,0.3l-0.1,0.1l0,0c0.1,0.1,0.3,0.2,0.4,0.3
		c0.2,0.2,0.3,0.4,0.4,0.7c0.1,0.2,0.2,0.5,0.2,0.8c0,0.2,0.1,0.5,0.1,0.7s0,0.4,0.1,0.5c0,0.1,0.1,0.2,0.3,0.3
		c0.2,0.1,0.4,0.3,0.4,0.6S48.3,15.6,48.1,15.7z M44.8,7.2h-3.3v3.4h3.3c0.2,0,0.4-0.1,0.5-0.2c0.2-0.2,0.3-0.4,0.4-0.7
		c0.1-0.3,0.2-0.6,0.2-0.9c0-0.4-0.1-0.8-0.4-1.1S45.1,7.2,44.8,7.2z M54.4,16c1,0,1.8-0.2,2.5-0.7s1.2-1.1,1.5-1.9
		c0.4-0.8,0.5-1.7,0.5-2.6c0-0.7-0.1-1.4-0.3-2c-0.2-0.6-0.5-1.2-0.9-1.7c-0.4-0.5-0.9-0.9-1.4-1.1c-0.6-0.3-1.2-0.4-1.9-0.4h-3.6
		c-0.3,0-0.5,0.1-0.7,0.3c-0.2,0.2-0.3,0.4-0.3,0.7v8.7c0,0.3,0.1,0.5,0.3,0.7s0.4,0.3,0.7,0.3H54.4z M54.3,7.2h-2.5v7h2.5
		c0.6,0,1.1-0.2,1.5-0.5c0.4-0.3,0.7-0.8,0.9-1.3c0.2-0.5,0.3-1.1,0.3-1.7c0-0.5-0.1-0.9-0.2-1.3c-0.1-0.4-0.3-0.8-0.5-1.1
		c-0.2-0.3-0.5-0.6-0.8-0.8C55.2,7.3,54.8,7.2,54.3,7.2z"/>
	<path class="st2" d="M24.5,16c0.2,0,0.4-0.1,0.6-0.3s0.3-0.4,0.3-0.7v-3.7l3.1-4.5c0-0.1,0.1-0.1,0.1-0.2l0-0.1c0-0.1,0-0.2,0-0.3
		c0-0.3-0.1-0.5-0.3-0.7c-0.2-0.2-0.4-0.3-0.6-0.3c-0.3,0-0.5,0.2-0.8,0.5l-2.5,3.6L22,5.9c-0.2-0.2-0.4-0.4-0.6-0.4l-0.1,0
		c-0.2,0-0.4,0.1-0.6,0.3c-0.2,0.2-0.3,0.4-0.3,0.7c0,0.1,0,0.2,0.1,0.3c0,0.1,0.1,0.2,0.2,0.4l3.1,4.1v3.9c0,0.2,0.1,0.4,0.2,0.6
		l0.1,0.1C24.1,15.9,24.3,16,24.5,16z"/>
	<path class="st1" d="M37.6,15.8c-0.2,0.2-0.4,0.2-0.6,0.2c-0.2,0-0.3-0.1-0.5-0.2l-0.1-0.1c-0.1-0.1-0.2-0.2-0.2-0.4l-0.8-1.8h-4.5
		l-0.8,1.8c-0.1,0.2-0.2,0.3-0.3,0.4c-0.1,0.1-0.3,0.2-0.5,0.2c-0.3,0-0.5-0.1-0.6-0.2c-0.1-0.2-0.2-0.3-0.2-0.6c0-0.1,0-0.2,0-0.3
		l3.7-9c0.1-0.2,0.2-0.4,0.4-0.5c0.2-0.1,0.3-0.2,0.5-0.1c0.2,0,0.3,0.1,0.5,0.2C33.9,5.7,34,5.8,34.1,6l3.7,8.8
		c0.1,0.1,0.1,0.2,0.1,0.4C37.8,15.5,37.8,15.7,37.6,15.8z M31.7,11.9h3l-1.5-3.5L31.7,11.9z"/>
</g>
</svg>
