<?xml version="1.0" encoding="utf-8"?>
<!-- Generator: Adobe Illustrator 26.5.0, SVG Export Plug-In . SVG Version: 6.00 Build 0)  -->
<svg version="1.1" id="Capa_1" xmlns="http://www.w3.org/2000/svg" xmlns:xlink="http://www.w3.org/1999/xlink" x="0px" y="0px"
	 viewBox="0 0 96 17" style="enable-background:new 0 0 96 17;" xml:space="preserve">
<style type="text/css">
	.st0{fill-rule:evenodd;clip-rule:evenodd;}
	.st1{fill-rule:evenodd;clip-rule:evenodd;fill:#058E18;}
</style>
<path class="st0" d="M3.7,9.7v6.7c0,0.3-0.3,0.6-0.6,0.6H0.6C0.3,17,0,16.7,0,16.4V4.3C0,4,0.2,3.8,0.4,3.7c0,0,5.4-2,6.9-2.6
	C7.8,1,8.2,1,8.7,1.1c1.6,0.6,6.9,2.6,6.9,2.6c0.3,0.1,0.5,0.5,0.4,0.8c-0.1,0.3-0.5,0.5-0.8,0.3c0,0-5.4-2-6.9-2.6
	c-0.1-0.1-0.3-0.1-0.4,0L1.2,4.7v11.1h1.2V6.7c0-0.3,0.3-0.6,0.6-0.6h9.8c0.3,0,0.6,0.3,0.6,0.6v9.1h1.2V6.7c0-0.3,0.3-0.6,0.6-0.6
	c0.3,0,0.6,0.3,0.6,0.6v9.7c0,0.3-0.3,0.6-0.6,0.6h-2.5c-0.3,0-0.6-0.3-0.6-0.6V9.7H3.7z M12.3,8.5V7.3H3.7v1.2H12.3z"/>
<path class="st1" d="M25.8,15.7c-0.5,0.1-0.9,0.1-1.4,0.1h-4.4c-0.3,0-0.6-0.1-0.8-0.3c-0.2-0.2-0.3-0.4-0.3-0.7V5
	c0-0.3,0.1-0.5,0.3-0.7C19.5,4.1,19.8,4,20.1,4h4.4c1.1,0,2,0.3,2.5,0.8C27.6,5.3,27.8,6,27.8,7c0,0.5-0.1,1-0.4,1.4l-0.1,0.2
	c-0.2,0.2-0.5,0.5-0.8,0.6l-0.1,0.1l0.3,0.1c0.1,0.1,0.2,0.1,0.3,0.2c0.4,0.2,0.8,0.6,1.1,1c0.3,0.4,0.4,1,0.4,1.7
	c0,0.7-0.1,1.4-0.4,1.8c-0.3,0.5-0.6,0.8-1,1.1C26.7,15.4,26.3,15.6,25.8,15.7z M24.2,6h-2.9v2.6h3c0.3,0,0.6-0.1,0.9-0.3
	c0.3-0.2,0.4-0.5,0.4-0.9c0-0.5-0.1-0.8-0.4-1.1C24.9,6.1,24.6,6,24.2,6z M21.3,10.6h3c0.2,0,0.5,0,0.8,0.1c0.3,0.1,0.5,0.2,0.8,0.4
	c0.2,0.2,0.3,0.6,0.3,1.1c0,0.6-0.2,1-0.5,1.2c-0.3,0.3-0.7,0.4-1.3,0.4h-3.2V10.6z M37,15.4c-0.7,0.4-1.5,0.6-2.4,0.6
	c-0.9,0-1.7-0.2-2.4-0.6c-0.7-0.4-1.3-0.9-1.7-1.6c-0.4-0.7-0.6-1.5-0.6-2.4c0-0.9,0.2-1.7,0.6-2.4c0.4-0.7,1-1.3,1.7-1.7
	c0.7-0.4,1.5-0.6,2.4-0.6c0.9,0,1.7,0.2,2.4,0.6c0.7,0.4,1.3,1,1.7,1.7c0.4,0.7,0.6,1.5,0.6,2.4c0,0.9-0.2,1.7-0.6,2.4
	C38.3,14.5,37.7,15,37,15.4z M34.6,14.1c-0.5,0-0.9-0.1-1.3-0.4s-0.7-0.6-1-1c-0.2-0.4-0.4-0.9-0.4-1.5c0-0.6,0.1-1.1,0.4-1.5
	c0.2-0.4,0.6-0.8,1-1s0.9-0.4,1.3-0.4s0.9,0.1,1.3,0.4c0.4,0.2,0.7,0.6,1,1c0.2,0.4,0.4,0.9,0.4,1.5c0,0.6-0.1,1.1-0.4,1.5
	c-0.2,0.4-0.6,0.8-1,1C35.5,14,35.1,14.1,34.6,14.1z M45.8,15.5c-0.4,0.2-0.7,0.3-1.2,0.3c-0.2,0-0.5,0-0.8-0.1
	c-0.3,0-0.6-0.1-0.8-0.3c-0.3-0.2-0.5-0.4-0.7-0.7l-0.1-0.2c-0.1-0.3-0.2-0.7-0.2-1.1V8.8h-0.8c-0.3,0-0.5-0.1-0.7-0.3
	c-0.2-0.2-0.3-0.4-0.3-0.7c0-0.3,0.1-0.5,0.3-0.7l0.1-0.1C40.8,7,41,7,41.2,7h0.8V5.9c0-0.3,0.1-0.5,0.3-0.7
	c0.2-0.2,0.5-0.3,0.8-0.3c0.3,0,0.6,0.1,0.7,0.3L44,5.3c0.1,0.2,0.2,0.4,0.2,0.6V7h1.2c0.3,0,0.5,0.1,0.7,0.3
	c0.2,0.2,0.3,0.4,0.3,0.7c0,0.3-0.1,0.5-0.3,0.7L46,8.6c-0.2,0.1-0.4,0.2-0.6,0.2h-1.2v4.6c0,0.2,0,0.3,0.1,0.4
	c0.1,0.1,0.2,0.2,0.3,0.2c0.1,0,0.2,0.1,0.4,0.1c0.1,0,0.3,0,0.4-0.1c0.1-0.1,0.3-0.1,0.4-0.1c0.2,0,0.3,0.1,0.4,0.2
	c0.1,0.1,0.2,0.3,0.2,0.6C46.3,15.1,46.1,15.3,45.8,15.5z M52.1,16c0.4,0,0.9-0.1,1.2-0.2c0.4-0.1,0.7-0.3,1-0.5
	c0.1-0.1,0.3-0.2,0.4-0.3l0.2-0.1l0,0.2c0,0.2,0.1,0.3,0.2,0.4l0.1,0.1c0.2,0.2,0.5,0.3,0.8,0.3c0.3,0,0.6-0.1,0.8-0.3
	s0.3-0.4,0.3-0.7V7.7c0-0.3-0.1-0.6-0.3-0.7c-0.2-0.2-0.5-0.3-0.8-0.3c-0.3,0-0.6,0.1-0.8,0.3c-0.2,0.2-0.3,0.4-0.3,0.7v0l-0.1-0.1
	l-0.2-0.2c-0.3-0.2-0.7-0.4-1.1-0.6c-0.4-0.1-0.9-0.2-1.4-0.2c-0.8,0-1.5,0.2-2.1,0.6c-0.6,0.4-1.2,1-1.5,1.7
	c-0.4,0.7-0.6,1.5-0.6,2.4c0,0.9,0.2,1.7,0.6,2.4c0.4,0.7,0.9,1.3,1.6,1.7C50.6,15.8,51.3,16,52.1,16z M51.1,13.8
	c0.4,0.2,0.8,0.4,1.3,0.4c0.5,0,1-0.1,1.4-0.4c0.4-0.2,0.7-0.6,0.9-1c0.2-0.4,0.3-0.9,0.3-1.4c0-0.5-0.1-1-0.3-1.5
	c-0.2-0.4-0.5-0.8-0.9-1c-0.4-0.2-0.8-0.4-1.4-0.4c-0.5,0-0.9,0.1-1.3,0.4c-0.4,0.2-0.7,0.6-0.9,1c-0.2,0.4-0.3,0.9-0.3,1.5
	c0,0.5,0.1,1,0.3,1.4C50.4,13.2,50.7,13.5,51.1,13.8z"/>
<path class="st0" d="M60.9,15.5c-0.2,0.2-0.5,0.3-0.8,0.3c-0.3,0-0.6-0.1-0.8-0.3c-0.2-0.2-0.3-0.4-0.3-0.7V5c0-0.3,0.1-0.5,0.3-0.7
	C59.5,4.1,59.8,4,60.1,4h5.7c0.3,0,0.6,0.1,0.8,0.3c0.2,0.2,0.3,0.4,0.3,0.7c0,0.2-0.1,0.5-0.3,0.7l-0.1,0.1
	c-0.2,0.1-0.4,0.2-0.6,0.2h-4.6v3H65c0.3,0,0.6,0.1,0.8,0.3c0.2,0.2,0.3,0.4,0.3,0.7c0,0.2-0.1,0.5-0.3,0.7l-0.1,0.1
	c-0.2,0.1-0.4,0.2-0.6,0.2h-3.8v3.9C61.2,15.1,61.1,15.3,60.9,15.5z M75.5,15.4C74.7,15.8,73.9,16,73,16s-1.7-0.2-2.4-0.6
	c-0.7-0.4-1.3-0.9-1.7-1.6c-0.4-0.7-0.6-1.5-0.6-2.4c0-0.9,0.2-1.7,0.6-2.4c0.4-0.7,1-1.3,1.7-1.7s1.5-0.6,2.4-0.6s1.7,0.2,2.4,0.6
	s1.3,1,1.7,1.7c0.4,0.7,0.6,1.5,0.6,2.4c0,0.9-0.2,1.7-0.6,2.4C76.8,14.5,76.2,15,75.5,15.4z M73,14.1c-0.5,0-0.9-0.1-1.4-0.4
	c-0.4-0.2-0.7-0.6-1-1c-0.2-0.4-0.4-0.9-0.4-1.5c0-0.6,0.1-1.1,0.4-1.5c0.2-0.4,0.6-0.8,1-1c0.4-0.2,0.9-0.4,1.4-0.4
	s0.9,0.1,1.4,0.4s0.7,0.6,1,1c0.2,0.4,0.4,0.9,0.4,1.5c0,0.6-0.1,1.1-0.4,1.5c-0.2,0.4-0.6,0.8-1,1S73.5,14.1,73,14.1z M81.4,15.5
	c-0.2,0.2-0.5,0.3-0.8,0.3c-0.3,0-0.6-0.1-0.8-0.3c-0.2-0.2-0.3-0.4-0.3-0.7v-7c0-0.3,0.1-0.5,0.3-0.7c0.2-0.2,0.5-0.3,0.8-0.3
	c0.3,0,0.6,0.1,0.8,0.3l0.1,0.1c0.1,0.2,0.2,0.4,0.2,0.6V8l0.1-0.2c0.1-0.1,0.2-0.2,0.3-0.3c0.2-0.2,0.4-0.4,0.7-0.5
	c0.3-0.1,0.5-0.2,0.8-0.3c0.3-0.1,0.6-0.1,0.9-0.1c0.4,0,0.7,0.1,0.9,0.3c0.2,0.2,0.4,0.4,0.4,0.7c0,0.4-0.1,0.6-0.3,0.8
	c-0.2,0.2-0.4,0.2-0.7,0.2c-0.2,0-0.4,0-0.6-0.1c-0.2-0.1-0.4-0.1-0.6-0.1c-0.2,0-0.4,0-0.6,0.1c-0.2,0.1-0.4,0.2-0.6,0.4
	c-0.2,0.2-0.3,0.5-0.4,0.8c-0.1,0.3-0.2,0.7-0.2,1.1v4C81.7,15.1,81.6,15.3,81.4,15.5z M91.1,16c0.4,0,0.9-0.1,1.2-0.2
	c0.4-0.1,0.7-0.3,1-0.5c0.1-0.1,0.3-0.2,0.4-0.3l0.2-0.1l0,0.2c0,0.2,0.1,0.3,0.2,0.4l0.1,0.1c0.2,0.2,0.5,0.3,0.8,0.3
	c0.3,0,0.6-0.1,0.8-0.3c0.2-0.2,0.3-0.4,0.3-0.7V7.7c0-0.3-0.1-0.6-0.3-0.7c-0.2-0.2-0.5-0.3-0.8-0.3c-0.3,0-0.6,0.1-0.8,0.3
	c-0.2,0.2-0.3,0.4-0.3,0.7v0l-0.1-0.1l-0.2-0.2c-0.3-0.2-0.7-0.4-1.1-0.6C92,6.7,91.5,6.6,91,6.6c-0.8,0-1.5,0.2-2.2,0.6
	s-1.2,1-1.5,1.7c-0.4,0.7-0.6,1.5-0.6,2.4c0,0.9,0.2,1.7,0.6,2.4c0.4,0.7,0.9,1.3,1.6,1.7C89.6,15.8,90.3,16,91.1,16z M90,13.8
	c0.4,0.2,0.8,0.4,1.3,0.4c0.5,0,1-0.1,1.4-0.4s0.7-0.6,0.9-1c0.2-0.4,0.3-0.9,0.3-1.4c0-0.5-0.1-1-0.3-1.5c-0.2-0.4-0.5-0.8-0.9-1
	c-0.4-0.2-0.8-0.4-1.4-0.4c-0.5,0-1,0.1-1.3,0.4c-0.4,0.2-0.7,0.6-0.9,1c-0.2,0.4-0.3,0.9-0.3,1.5c0,0.5,0.1,1,0.3,1.4
	C89.3,13.2,89.6,13.5,90,13.8z"/>
</svg>
