<?xml version="1.0" encoding="utf-8"?>
<!-- Generator: Adobe Illustrator 26.5.0, SVG Export Plug-In . SVG Version: 6.00 Build 0)  -->
<svg version="1.1" id="Capa_1" xmlns="http://www.w3.org/2000/svg" xmlns:xlink="http://www.w3.org/1999/xlink" x="0px" y="0px"
	 viewBox="0 0 48 48" style="enable-background:new 0 0 48 48;" xml:space="preserve">
<style type="text/css">
	.st0{fill:#FFFFFF;}
	.st1{fill:#C7C7C7;}
	.st2{fill:#058E18;}
	.st3{fill-rule:evenodd;clip-rule:evenodd;fill:#FFFFFF;stroke:#FFFFFF;stroke-width:0.8;}
</style>
<g>
	<circle class="st0" cx="24" cy="24" r="20"/>
</g>
<path class="st1" d="M13,14c-0.6,0-1,0.4-1,1s0.4,1,1,1V14z M15.2,15l1-0.2c-0.1-0.5-0.5-0.8-1-0.8V15z M14.7,17.4
	c0.1,0.5,0.6,0.9,1.2,0.8c0.5-0.1,0.9-0.6,0.8-1.2L14.7,17.4z M17.4,25.1c-0.6,0-1,0.4-1,1s0.4,1,1,1V25.1z M28.6,26.1v1
	c0.4,0,0.7-0.2,0.9-0.6L28.6,26.1z M33,17.2l0.9,0.4c0.2-0.3,0.1-0.7,0-1c-0.2-0.3-0.5-0.5-0.9-0.5V17.2z M15.7,16.2
	c-0.6,0-1,0.4-1,1c0,0.6,0.4,1,1,1V16.2z M16.5,26.2c0.1,0.5,0.6,0.9,1.2,0.8c0.5-0.1,0.9-0.6,0.8-1.2L16.5,26.2z M16.6,17
	c-0.1-0.5-0.6-0.9-1.2-0.8c-0.5,0.1-0.9,0.6-0.8,1.2L16.6,17z M18.1,26.8c0.4-0.4,0.4-1,0-1.4c-0.4-0.4-1-0.4-1.4,0L18.1,26.8z
	 M14.9,28.6l-0.7-0.7L14.9,28.6z M28.6,31.5c0.6,0,1-0.4,1-1c0-0.6-0.4-1-1-1V31.5z M28.6,30.5h-1c0,0.3,0.1,0.5,0.3,0.7L28.6,30.5z
	 M30.8,32.7l-0.7,0.7c0.2,0.2,0.4,0.3,0.7,0.3V32.7z M19.7,32.7l-0.9-0.5c-0.1,0.2-0.1,0.3-0.1,0.5H19.7z M19.7,34.9h-1
	c0,0.2,0,0.3,0.1,0.5L19.7,34.9z M13,16h2.2v-2H13V16z M14.2,15.2l0.4,2.2l2-0.4l-0.4-2.2L14.2,15.2z M17.4,27.1h11.1v-2H17.4V27.1z
	 M29.4,26.5l4.4-8.8l-1.8-0.9l-4.4,8.8L29.4,26.5z M33,16.2H15.7v2H33V16.2z M18.4,25.9L16.6,17l-2,0.4l1.8,8.8L18.4,25.9z
	 M16.7,25.3l-2.5,2.5l1.4,1.4l2.5-2.5L16.7,25.3z M14.2,27.9c-1.3,1.3-0.4,3.6,1.5,3.6v-2c0,0-0.1,0-0.1,0c0,0,0,0,0-0.1
	c0,0,0,0,0-0.1c0,0,0,0,0-0.1L14.2,27.9z M15.7,31.5h12.9v-2H15.7V31.5z M29.6,30.5c0-0.7,0.5-1.2,1.2-1.2v-2
	c-1.8,0-3.2,1.4-3.2,3.2H29.6z M30.8,29.3c0.7,0,1.2,0.5,1.2,1.2h2c0-1.8-1.4-3.2-3.2-3.2V29.3z M32,30.5c0,0.7-0.5,1.2-1.2,1.2v2
	c1.8,0,3.2-1.4,3.2-3.2H32z M31.5,32l-2.2-2.2l-1.4,1.4l2.2,2.2L31.5,32z M20.5,33.2c0.3-0.5,0.8-0.7,1.4-0.6l0.5-1.9
	c-1.4-0.4-2.9,0.2-3.6,1.5L20.5,33.2z M21.9,32.6c0.5,0.1,0.9,0.6,0.9,1.2h2c0-1.5-1-2.7-2.4-3.1L21.9,32.6z M22.8,33.8
	c0,0.5-0.4,1-0.9,1.2l0.5,1.9c1.4-0.4,2.4-1.6,2.4-3.1H22.8z M21.9,35c-0.5,0.1-1.1-0.1-1.4-0.6l-1.7,1c0.7,1.3,2.2,1.9,3.6,1.5
	L21.9,35z M20.7,34.9v-2.2h-2v2.2H20.7z"/>
<circle class="st2" cx="32" cy="16" r="6"/>
<path class="st3" d="M34.5,14.2c-0.2-0.2-0.6-0.2-0.8,0l-2.6,2.9L30,16c-0.2-0.2-0.6-0.2-0.8,0c-0.2,0.2-0.2,0.6,0,0.8l1.6,1.6
	c0.1,0.1,0.3,0.2,0.4,0.2c0,0,0,0,0,0c0.2,0,0.3-0.1,0.4-0.2l3-3.4C34.8,14.8,34.8,14.5,34.5,14.2z"/>
</svg>
