<?xml version="1.0" encoding="utf-8"?>
<!-- Generator: Adobe Illustrator 26.5.0, SVG Export Plug-In . SVG Version: 6.00 Build 0)  -->
<svg version="1.1" id="Capa_1" xmlns="http://www.w3.org/2000/svg" xmlns:xlink="http://www.w3.org/1999/xlink" x="0px" y="0px"
	 viewBox="0 0 30 27" style="enable-background:new 0 0 30 27;" xml:space="preserve">
<style type="text/css">
	.st0{fill:#058E18;}
</style>
<path d="M4,2C3.4,2,3,2.4,3,3s0.4,1,1,1V2z M6.2,3l1-0.2C7.1,2.3,6.7,2,6.2,2V3z M5.7,5.4c0.1,0.5,0.6,0.9,1.2,0.8
	C7.4,6.1,7.8,5.6,7.6,5L5.7,5.4z M8.4,13.1c-0.6,0-1,0.4-1,1c0,0.6,0.4,1,1,1V13.1z M19.6,14.1v1c0.4,0,0.7-0.2,0.9-0.6L19.6,14.1z
	 M24,5.2l0.9,0.4c0.2-0.3,0.1-0.7,0-1S24.3,4.2,24,4.2V5.2z M6.7,4.2c-0.6,0-1,0.4-1,1c0,0.6,0.4,1,1,1V4.2z M7.5,14.2
	c0.1,0.5,0.6,0.9,1.2,0.8c0.5-0.1,0.9-0.6,0.8-1.2L7.5,14.2z M7.6,5C7.5,4.5,7,4.1,6.5,4.2C5.9,4.3,5.6,4.9,5.7,5.4L7.6,5z
	 M9.1,14.8c0.4-0.4,0.4-1,0-1.4c-0.4-0.4-1-0.4-1.4,0L9.1,14.8z M5.9,16.6l-0.7-0.7L5.9,16.6z M19.6,19.5c0.6,0,1-0.4,1-1
	c0-0.6-0.4-1-1-1V19.5z M19.6,18.5h-1c0,0.3,0.1,0.5,0.3,0.7L19.6,18.5z M21.8,20.7l-0.7,0.7c0.2,0.2,0.4,0.3,0.7,0.3V20.7z
	 M10.7,20.7l-0.9-0.5c-0.1,0.2-0.1,0.3-0.1,0.5H10.7z M10.7,22.9h-1c0,0.2,0,0.3,0.1,0.5L10.7,22.9z M4,4h2.2V2H4V4z M5.2,3.2
	l0.4,2.2l2-0.4L7.2,2.8L5.2,3.2z M8.4,15.1h11.1v-2H8.4V15.1z M20.4,14.5l4.4-8.8l-1.8-0.9l-4.4,8.8L20.4,14.5z M24,4.2H6.7v2H24
	V4.2z M9.4,13.9L7.6,5l-2,0.4l1.8,8.8L9.4,13.9z M7.7,13.3l-2.5,2.5l1.4,1.4l2.5-2.5L7.7,13.3z M5.2,15.9c-1.3,1.3-0.4,3.6,1.5,3.6
	v-2c0,0-0.1,0-0.1,0c0,0,0,0,0-0.1c0,0,0,0,0-0.1c0,0,0,0,0-0.1L5.2,15.9z M6.7,19.5h12.9v-2H6.7V19.5z M20.6,18.5
	c0-0.7,0.5-1.2,1.2-1.2v-2c-1.8,0-3.2,1.4-3.2,3.2H20.6z M21.8,17.3c0.7,0,1.2,0.5,1.2,1.2h2c0-1.8-1.4-3.2-3.2-3.2V17.3z M23,18.5
	c0,0.7-0.5,1.2-1.2,1.2v2c1.8,0,3.2-1.4,3.2-3.2H23z M22.5,20l-2.2-2.2l-1.4,1.4l2.2,2.2L22.5,20z M11.5,21.2
	c0.3-0.5,0.8-0.7,1.4-0.6l0.5-1.9c-1.4-0.4-2.9,0.2-3.6,1.5L11.5,21.2z M12.9,20.6c0.5,0.1,0.9,0.6,0.9,1.2h2c0-1.5-1-2.7-2.4-3.1
	L12.9,20.6z M13.8,21.8c0,0.5-0.4,1-0.9,1.2l0.5,1.9c1.4-0.4,2.4-1.6,2.4-3.1H13.8z M12.9,23c-0.5,0.1-1.1-0.1-1.4-0.6l-1.7,1
	c0.7,1.3,2.2,1.9,3.6,1.5L12.9,23z M11.7,22.9v-2.2h-2v2.2H11.7z"/>
<circle class="st0" cx="23.5" cy="5" r="5"/>
</svg>
